<svg width="145" height="144" viewBox="0 0 145 144" fill="none" xmlns="http://www.w3.org/2000/svg">
<g id="SymbolicLogo" clip-path="url(#clip0_343_3742)">
<path id="Vector" d="M115.7 0H29.3C13.3942 0 0.5 12.8942 0.5 28.8V115.2C0.5 131.106 13.3942 144 29.3 144H115.7C131.606 144 144.5 131.106 144.5 115.2V28.8C144.5 12.8942 131.606 0 115.7 0Z" fill="#00C896"/>
<path id="Vector_2" fill-rule="evenodd" clip-rule="evenodd" d="M34.8784 48H110.122C111.484 48 112.834 48.2684 114.093 48.7899C115.352 49.3116 116.497 50.0761 117.46 51.0398C118.424 52.0035 119.188 53.1475 119.71 54.4068C120.232 55.6659 120.5 57.0155 120.5 58.3784V82.3784C120.5 83.7414 120.232 85.0908 119.71 86.3499C119.188 87.6092 118.424 88.7532 117.46 89.7169C116.497 90.6808 115.352 91.4452 114.093 91.9668C112.834 92.4883 111.484 92.7567 110.122 92.7567H85.9741C82.1352 94.8481 77.4018 96 72.5 96C67.5982 96 62.8648 94.8481 59.0259 92.7567H34.8784C33.5155 92.7567 32.1659 92.4883 30.9068 91.9668C29.6475 91.4452 28.5035 90.6808 27.5398 89.7169C26.5761 88.7532 25.8116 87.6092 25.2899 86.3499C24.7684 85.0908 24.5 83.7414 24.5 82.3784V58.3784C24.5 55.6258 25.5934 52.9861 27.5398 51.0398C29.4861 49.0934 32.1258 48 34.8784 48ZM34.8784 87.5676H52.8987C51.3017 85.3813 50.4459 82.938 50.4459 80.4324C50.4459 79.2399 50.6808 78.059 51.1373 76.9573C51.5935 75.8555 52.2625 74.8544 53.1057 74.0112C53.949 73.1679 54.9501 72.4989 56.0519 72.0426C57.1536 71.5862 58.3345 71.3513 59.527 71.3513C60.7196 71.3513 61.9005 71.5862 63.0022 72.0426C64.104 72.4989 65.1051 73.1679 65.9483 74.0112C66.7916 74.8544 67.4605 75.8555 67.9168 76.9573C68.3732 78.059 68.6082 79.2399 68.6082 80.4325C68.6082 83.7254 67.13 86.9107 64.4334 89.5466C66.8865 90.3688 69.6562 90.8108 72.5 90.8108C75.3438 90.8108 78.1135 90.3688 80.5666 89.5466C77.87 86.9107 76.3918 83.7254 76.3918 80.4324C76.3918 79.2399 76.6268 78.059 77.0832 76.9573C77.5395 75.8555 78.2084 74.8544 79.0517 74.0112C79.8949 73.1679 80.896 72.4989 81.9978 72.0426C83.0995 71.5862 84.2804 71.3513 85.473 71.3513C86.6655 71.3513 87.8464 71.5862 88.9481 72.0426C90.0499 72.4989 91.051 73.1679 91.8943 74.0112C92.7375 74.8544 93.4065 75.8555 93.8627 76.9573C94.3192 78.059 94.5541 79.2399 94.5541 80.4325C94.5541 82.938 93.6983 85.3813 92.1013 87.5676H110.122C110.803 87.5676 111.478 87.4334 112.107 87.1725C112.737 86.9118 113.309 86.5296 113.791 86.0477C114.273 85.5659 114.655 84.9937 114.916 84.3643C115.177 83.7346 115.311 83.0599 115.311 82.3784V58.3784C115.311 57.697 115.177 57.0221 114.916 56.3926C114.655 55.763 114.273 55.1909 113.791 54.709C113.309 54.2272 112.737 53.845 112.107 53.5842C111.478 53.3235 110.803 53.1892 110.122 53.1892H34.8784C33.5021 53.1892 32.1822 53.7359 31.209 54.709C30.2359 55.6822 29.6892 57.0021 29.6892 58.3784V82.3784C29.6892 83.0599 29.8235 83.7346 30.0842 84.3643C30.345 84.9937 30.7272 85.5659 31.209 86.0477C31.6909 86.5296 32.263 86.9118 32.8926 87.1725C33.5221 87.4334 34.197 87.5676 34.8784 87.5676ZM59.527 87.0639C62.0317 85.2085 63.4189 82.8645 63.4189 80.4325C63.4189 79.9214 63.3183 79.4153 63.1227 78.9431C62.927 78.4709 62.6404 78.0418 62.279 77.6805C61.9176 77.3191 61.4885 77.0323 61.0163 76.8368C60.5442 76.6412 60.0381 76.5405 59.527 76.5405C59.016 76.5405 58.5098 76.6412 58.0376 76.8368C57.5654 77.0323 57.1364 77.3191 56.7751 77.6805C56.4137 78.0418 56.1269 78.4709 55.9314 78.9431C55.7358 79.4153 55.6351 79.9214 55.6351 80.4324C55.6351 82.8645 57.0223 85.2085 59.527 87.0639ZM89.3649 80.4325C89.3649 82.8645 87.9777 85.2085 85.473 87.0639C82.9682 85.2085 81.5811 82.8645 81.5811 80.4324C81.5811 79.9214 81.6817 79.4153 81.8773 78.9431C82.073 78.4709 82.3596 78.0418 82.721 77.6805C83.0824 77.3191 83.5115 77.0323 83.9837 76.8368C84.4558 76.6412 84.9619 76.5405 85.473 76.5405C85.984 76.5405 86.4902 76.6412 86.9624 76.8368C87.4346 77.0323 87.8636 77.3191 88.2249 77.6805C88.5863 78.0418 88.8731 78.4709 89.0686 78.9431C89.2642 79.4153 89.3649 79.9214 89.3649 80.4325Z" fill="white"/>
</g>
<defs>
<clipPath id="clip0_343_3742">
<rect width="144" height="144" fill="white" transform="translate(0.5)"/>
</clipPath>
</defs>
</svg>
